<svg width="641" height="136" viewBox="0 0 641 136" fill="none" xmlns="http://www.w3.org/2000/svg">
<path d="M63.0884 65.771L116.953 134H77.8304L32.4704 74.087V134H0.151367V0.376953H32.4704V59.156L78.2084 0.376953H116.953L63.0884 65.771Z" fill="#6551FF"/>
<path d="M230.813 78.434C230.813 81.08 230.498 83.978 229.868 87.128H156.725C157.103 95.066 159.119 100.799 162.773 104.327C166.427 107.729 171.089 109.43 176.759 109.43C181.547 109.43 185.516 108.233 188.666 105.839C191.816 103.445 193.895 100.358 194.903 96.578H229.112C227.726 104.012 224.702 110.69 220.04 116.612C215.378 122.408 209.456 127.007 202.274 130.409C195.092 133.685 187.091 135.323 178.271 135.323C167.939 135.323 158.741 133.181 150.677 128.897C142.739 124.487 136.502 118.187 131.966 109.997C127.43 101.807 125.162 92.231 125.162 81.269C125.162 70.181 127.367 60.605 131.777 52.541C136.313 44.351 142.613 38.114 150.677 33.83C158.741 29.42 167.939 27.215 178.271 27.215C188.729 27.215 197.927 29.357 205.865 33.641C213.803 37.925 219.914 43.973 224.198 51.785C228.608 59.471 230.813 68.354 230.813 78.434ZM198.116 73.52C198.242 66.59 196.352 61.424 192.446 58.022C188.666 54.494 183.941 52.73 178.271 52.73C172.349 52.73 167.435 54.494 163.529 58.022C159.623 61.55 157.418 66.716 156.914 73.52H198.116Z" fill="#6551FF"/>
<path d="M347.83 78.434C347.83 81.08 347.515 83.978 346.885 87.128H273.742C274.12 95.066 276.136 100.799 279.79 104.327C283.444 107.729 288.106 109.43 293.776 109.43C298.564 109.43 302.533 108.233 305.683 105.839C308.833 103.445 310.912 100.358 311.92 96.578H346.129C344.743 104.012 341.719 110.69 337.057 116.612C332.395 122.408 326.473 127.007 319.291 130.409C312.109 133.685 304.108 135.323 295.288 135.323C284.956 135.323 275.758 133.181 267.694 128.897C259.756 124.487 253.519 118.187 248.983 109.997C244.447 101.807 242.179 92.231 242.179 81.269C242.179 70.181 244.384 60.605 248.794 52.541C253.33 44.351 259.63 38.114 267.694 33.83C275.758 29.42 284.956 27.215 295.288 27.215C305.746 27.215 314.944 29.357 322.882 33.641C330.82 37.925 336.931 43.973 341.215 51.785C345.625 59.471 347.83 68.354 347.83 78.434ZM315.133 73.52C315.259 66.59 313.369 61.424 309.463 58.022C305.683 54.494 300.958 52.73 295.288 52.73C289.366 52.73 284.452 54.494 280.546 58.022C276.64 61.55 274.435 66.716 273.931 73.52H315.133Z" fill="#6551FF"/>
<path d="M431.584 27.404C443.68 27.404 453.256 31.436 460.312 39.5C467.494 47.564 471.085 58.652 471.085 72.764V134H438.766V76.544C438.766 69.488 436.876 64.007 433.096 60.101C429.442 56.069 424.528 54.053 418.354 54.053C411.802 54.053 406.573 56.132 402.667 60.29C398.887 64.448 396.997 70.37 396.997 78.056V134H364.678V28.538H396.997V47.816C400.021 41.516 404.494 36.539 410.416 32.885C416.464 29.231 423.52 27.404 431.584 27.404Z" fill="#6551FF"/>
<path d="M541.729 27.215C552.187 27.215 561.511 29.42 569.701 33.83C578.017 38.114 584.506 44.351 589.168 52.541C593.956 60.731 596.35 70.3069 596.35 81.269C596.35 92.231 593.956 101.807 589.168 109.997C584.506 118.187 578.017 124.487 569.701 128.897C561.511 133.181 552.187 135.323 541.729 135.323C531.271 135.323 521.884 133.181 513.568 128.897C505.252 124.487 498.7 118.187 493.912 109.997C489.25 101.807 486.919 92.231 486.919 81.269C486.919 70.3069 489.25 60.731 493.912 52.541C498.7 44.351 505.252 38.114 513.568 33.83C521.884 29.42 531.271 27.215 541.729 27.215ZM541.729 55.187C535.555 55.187 530.326 57.455 526.042 61.991C521.884 66.401 519.805 72.827 519.805 81.269C519.805 89.711 521.884 96.137 526.042 100.547C530.326 104.957 535.555 107.162 541.729 107.162C547.903 107.162 553.069 104.957 557.227 100.547C561.385 96.137 563.464 89.711 563.464 81.269C563.464 72.827 561.385 66.401 557.227 61.991C553.069 57.455 547.903 55.187 541.729 55.187Z" fill="#6551FF"/>
<path d="M640.892 101.681V134H607.439V101.681H640.892Z" fill="#6551FF"/>
</svg>
